<svg xmlns="http://www.w3.org/2000/svg" width="1280" height="1279" viewBox="0 0 1280 1279" version="1.1">
	<path d="M 620.834 345.639 L 616.195 350.278 614.609 347.210 C 612.612 343.348, 609.657 342.339, 606.467 344.430 C 602.076 347.307, 601.996 353.269, 606.234 361.755 C 608.942 367.177, 613.273 371, 616.709 371 C 622.001 371, 630.576 358.377, 631.694 348.940 C 632.777 339.794, 628.101 338.373, 620.834 345.639 M 626.899 344 C 626.356 346.065, 626.464 354.904, 627.019 353.846 C 628.355 351.299, 628.867 346.403, 627.950 344.953 C 627.444 344.154, 626.971 343.725, 626.899 344 M 647.417 389.555 L 640.547 397.110 639.524 394.236 C 637.896 389.667, 634.460 386.042, 631.123 385.375 C 628.515 384.853, 627.501 385.299, 624.521 388.279 C 621.283 391.517, 621 392.278, 621 397.743 C 621 407.683, 624.826 416.509, 632.921 425.241 C 641.184 434.156, 649.512 429.961, 658.439 412.389 C 662.862 403.684, 664.975 396.773, 664.989 390.973 C 665.004 384.732, 662.902 382, 658.087 382 C 654.628 382, 653.669 382.679, 647.417 389.555 M 656.642 387.771 C 656.344 388.252, 656.177 391.089, 656.270 394.073 C 656.364 397.058, 656.126 401.300, 655.743 403.500 L 655.046 407.500 657.093 403 C 659.385 397.963, 660.181 387.952, 658.342 387.303 C 657.705 387.078, 656.940 387.289, 656.642 387.771 M 628.500 391 C 628.160 391.550, 628.359 392, 628.941 392 C 629.523 392, 630 391.550, 630 391 C 630 390.450, 629.802 390, 629.559 390 C 629.316 390, 628.840 390.450, 628.500 391 M 594.298 397.022 C 588.910 402.410, 588.104 402.903, 587.548 401.153 C 587.201 400.059, 586.003 398.003, 584.886 396.582 C 580.986 391.624, 573.017 394.099, 571.338 400.791 C 568.850 410.702, 580.626 430, 589.161 430 C 593.463 430, 600.375 422.807, 604.732 413.799 C 609.078 404.812, 610.165 399.663, 608.676 395.104 C 607.652 391.967, 607.041 391.461, 603.958 391.202 C 600.791 390.936, 599.768 391.552, 594.298 397.022 M 601.810 402.195 C 601.614 406.213, 601.563 409.675, 601.698 409.889 C 601.833 410.102, 602.448 408.977, 603.063 407.389 C 604.606 403.406, 604.777 395.809, 603.334 395.300 C 602.535 395.019, 602.056 397.187, 601.810 402.195 M 635.141 396.500 C 635.141 397.600, 635.527 399.400, 636 400.500 L 636.859 402.500 636.859 400.500 C 636.859 399.400, 636.473 397.600, 636 396.500 L 635.141 394.500 635.141 396.500 M 584.079 405.583 C 584.127 406.748, 584.364 406.985, 584.683 406.188 C 584.972 405.466, 584.936 404.603, 584.604 404.271 C 584.272 403.939, 584.036 404.529, 584.079 405.583 M 638.720 409.332 C 637.606 412.165, 637.788 413.612, 639.094 412.306 C 639.695 411.705, 640.020 410.377, 639.814 409.356 C 639.454 407.566, 639.415 407.565, 638.720 409.332 M 586.600 413.600 C 586.244 414.527, 586.178 415.511, 586.453 415.786 C 586.728 416.061, 587.244 415.527, 587.600 414.600 C 587.956 413.673, 588.022 412.689, 587.747 412.414 C 587.472 412.139, 586.956 412.673, 586.600 413.600 M 622.444 439.285 C 621.313 439.953, 618.613 442.412, 616.444 444.748 C 612.482 449.016, 611 449.890, 611 447.960 C 611 447.387, 610.015 445.587, 608.812 443.960 C 605.885 440, 601.047 439.854, 598.073 443.635 C 590.873 452.788, 603.740 477.290, 614.348 474.627 C 618.066 473.694, 622.440 468.540, 626.907 459.828 C 630.291 453.228, 631 450.853, 631 446.122 C 631 442.975, 630.460 439.860, 629.800 439.200 C 628.280 437.680, 625.098 437.717, 622.444 439.285 M 504.500 440.342 C 483.123 445.926, 471.308 465.509, 475.368 488.627 C 476.908 497.397, 481.865 508.507, 487.320 515.416 C 499.525 530.875, 525.699 549.279, 556.250 563.884 C 564.362 567.763, 571 571.394, 571 571.954 C 571 572.513, 573.800 574.385, 577.223 576.113 L 583.446 579.254 555.602 606.695 C 532.029 629.926, 527.626 634.717, 526.906 637.922 C 525.247 645.308, 529.621 652.270, 536.767 653.614 C 543.340 654.851, 542.236 655.776, 586.597 611.839 L 606.694 591.934 631.523 616.943 C 645.180 630.699, 656.611 642.301, 656.927 642.726 C 657.243 643.152, 660.281 646.087, 663.677 649.250 C 669.550 654.719, 670.105 655, 675.043 655 C 679.741 655, 680.605 654.630, 684.118 651.118 C 687.570 647.665, 688 646.693, 688 642.340 C 688 639.420, 687.326 636.448, 686.329 634.973 C 684.783 632.685, 649.240 596.297, 637.250 584.728 C 634.362 581.942, 632 579.323, 632 578.909 C 632 578.494, 633.675 577.602, 635.722 576.927 C 641.470 575.030, 642.528 573.461, 639.037 572.015 C 637.445 571.356, 635.900 570.183, 635.603 569.408 C 635.306 568.634, 634.467 568, 633.738 568 C 633.009 568, 628.608 564.403, 623.957 560.006 C 619.305 555.610, 615.816 552.010, 616.202 552.006 C 616.588 552.003, 615.746 550.763, 614.329 549.250 C 612.913 547.737, 611.315 545.263, 610.779 543.750 C 610.243 542.237, 609.412 541, 608.934 541 C 608.455 541, 608.289 540.409, 608.566 539.688 C 608.843 538.966, 608.007 537.807, 606.708 537.111 C 605.409 536.416, 603.756 534.194, 603.033 532.174 C 598.958 520.776, 581.594 488.093, 575.580 480.500 C 574.708 479.400, 571.677 475.350, 568.843 471.500 C 557.780 456.471, 545.199 446.563, 530.500 441.304 C 524.848 439.282, 510.579 438.754, 504.500 440.342 M 690.272 441.423 C 686.847 442.098, 680.182 444.565, 675.461 446.904 C 663.201 452.979, 652.361 463.967, 637.875 485 C 624.173 504.894, 609.111 535.320, 610.407 540.485 C 610.754 541.868, 611.369 543, 611.774 543 C 612.179 543, 613.593 540.188, 614.916 536.750 C 622.321 517.517, 635.999 493.606, 649.576 476.161 C 664.081 457.524, 676.171 448.779, 692.210 445.326 C 698.850 443.896, 700.899 443.840, 706.963 444.924 C 713.777 446.142, 715.686 447.975, 710.191 448.024 C 706.770 448.054, 697.512 451.848, 690.337 456.160 C 677.279 464.007, 659.889 481.868, 641.500 506.319 C 632.067 518.862, 617 541.173, 617 542.600 C 617 543.008, 616.263 544.157, 615.362 545.153 C 614.027 546.628, 613.957 547.243, 614.984 548.481 C 616.890 550.777, 617.454 550.420, 620.363 545.075 C 631.201 525.161, 662.761 484.553, 678.167 470.698 C 685.543 464.065, 695.285 457.799, 703.002 454.725 C 709.859 451.993, 720.025 450.133, 719.964 451.621 C 719.945 452.105, 716.994 454.300, 713.406 456.500 C 709.818 458.700, 706.121 461.175, 705.191 462 C 704.260 462.825, 701.389 465.075, 698.810 467 C 693.357 471.070, 666.893 497.565, 652.365 513.500 C 639.331 527.796, 619 551.804, 619 552.900 C 619 553.370, 619.584 554.240, 620.298 554.832 C 621.300 555.664, 624.098 552.913, 632.548 542.789 C 638.572 535.573, 643.950 529.177, 644.500 528.577 C 645.050 527.976, 649.318 523.213, 653.984 517.992 C 667.233 503.168, 690.739 479.445, 699 472.560 C 714.767 459.418, 728 451.912, 728 456.110 C 728 458.360, 721.820 468.701, 716.413 475.500 C 708.135 485.907, 689.536 504.604, 670.495 521.662 C 660.715 530.423, 630.663 555.520, 627.363 557.682 C 625.487 558.911, 625.213 559.552, 626.105 560.626 C 626.732 561.382, 627.752 561.984, 628.372 561.965 C 628.993 561.946, 633.550 558.550, 638.500 554.418 C 643.450 550.287, 648.400 546.177, 649.500 545.285 C 664.074 533.468, 678.114 520.793, 696.341 503 C 712.888 486.847, 721.987 476.439, 727.382 467.492 L 730.995 461.500 730.965 466 C 730.889 477.331, 722.401 492.511, 708 507.068 C 690.655 524.602, 659.910 547.666, 637.500 559.954 C 629.748 564.205, 629.379 564.597, 631.880 565.936 C 633.676 566.897, 635.396 566.197, 643.989 561.007 C 696.962 529.008, 730.819 495.743, 734.622 471.960 C 735.806 464.560, 737.503 470.336, 737.426 481.500 C 737.368 489.887, 736.925 492.592, 734.680 498.270 C 731.291 506.838, 727.956 511.985, 721.015 519.361 C 706.885 534.377, 675.452 553.988, 647.655 565.131 C 637.125 569.352, 636.892 569.512, 639.642 570.636 C 643.126 572.060, 645.059 571.390, 664.798 561.919 C 689.781 549.930, 708.124 537.727, 722.543 523.500 C 732.465 513.710, 737.810 504.737, 740.551 493.266 C 744.421 477.070, 740.190 460.944, 729.509 451.182 C 723.014 445.246, 717.218 442.403, 708.837 441.043 C 701.101 439.788, 698.276 439.846, 690.272 441.423 M 624.968 442.250 C 624.950 442.387, 624.784 445.200, 624.599 448.500 C 624.414 451.800, 623.950 455.400, 623.568 456.500 C 623.185 457.600, 623.613 457.219, 624.518 455.654 C 626.578 452.093, 627.777 442, 626.140 442 C 625.513 442, 624.985 442.113, 624.968 442.250 M 505 444.141 L 501.500 445.229 506.888 446.630 C 525.996 451.595, 544.220 466.685, 567.685 496.971 C 575.394 506.921, 590.929 529.811, 597.623 541.084 C 600.571 546.048, 600.810 546.223, 601.887 544.212 C 602.831 542.448, 602.411 540.542, 599.445 533.131 C 595.836 524.114, 582.445 496.959, 581.140 496.010 C 580.754 495.730, 578.541 492.350, 576.223 488.500 C 571.821 481.190, 570.979 480.044, 562.008 469.162 C 550.946 455.744, 543.556 450.124, 530.843 445.461 C 525.453 443.484, 509.702 442.680, 505 444.141 M 496 450.116 C 496 450.528, 496.900 451.151, 498 451.500 C 499.100 451.849, 500 452.554, 500 453.067 C 500 453.580, 500.521 454, 501.158 454 C 502.136 454, 510.940 460.213, 514.619 463.500 C 515.235 464.050, 517.935 466.364, 520.619 468.643 C 526.197 473.378, 538.397 485.402, 544.937 492.610 C 547.377 495.300, 551.877 500.204, 554.937 503.510 C 557.996 506.815, 562.750 512.197, 565.500 515.470 C 568.250 518.743, 572.469 523.689, 574.875 526.460 C 581.763 534.394, 583.269 536.202, 586.990 541 C 588.909 543.475, 591.497 546.620, 592.740 547.990 C 593.983 549.359, 595 550.822, 595 551.240 C 595 552.583, 596.767 552.050, 597.350 550.531 C 598.450 547.663, 577.585 515.602, 561.684 495.729 C 550.719 482.025, 536.499 467.072, 530.614 463.058 C 529.451 462.265, 528.275 461.343, 528 461.010 C 526.963 459.753, 518.081 455.002, 512.894 452.929 C 507.287 450.689, 496 448.810, 496 450.116 M 489 455.096 C 489 457.013, 491.668 462.807, 493.100 464 C 493.430 464.275, 494.292 465.625, 495.015 467 C 499.064 474.702, 526.436 504.467, 541 517.004 C 542.375 518.187, 545.534 521.033, 548.021 523.328 C 559.832 534.228, 571.244 544.160, 581.987 552.889 C 589.354 558.874, 589.503 558.941, 591.382 557.063 C 593.260 555.185, 593.237 555.085, 589.930 550.827 C 586.318 546.175, 571.926 528.826, 570.995 528 C 570.685 527.725, 569.491 526.274, 568.342 524.776 C 567.193 523.278, 563.159 518.590, 559.377 514.357 C 555.595 510.125, 550.700 504.605, 548.500 502.092 C 540.360 492.792, 518.276 471.168, 511.314 465.681 C 502.687 458.882, 493.158 453.006, 490.750 453.003 C 489.639 453.001, 489 453.765, 489 455.096 M 610.079 460.583 C 610.127 461.748, 610.364 461.985, 610.683 461.188 C 610.972 460.466, 610.936 459.603, 610.604 459.271 C 610.272 458.939, 610.036 459.529, 610.079 460.583 M 485 462.790 C 485 470.755, 492.265 487.921, 499.254 496.471 C 507.235 506.234, 519.082 517.477, 534.612 530.026 C 548.820 541.507, 581.027 563, 584.024 563 C 587.024 563, 584.765 560.197, 575.846 552.853 C 570.266 548.259, 565.206 544.029, 564.601 543.454 C 563.995 542.879, 557.425 536.994, 550 530.376 C 528.884 511.555, 507.476 490.020, 498.961 479.035 C 497.057 476.579, 494.737 473.708, 493.804 472.655 C 492.872 471.602, 490.847 468.324, 489.304 465.372 C 486.167 459.367, 485 458.667, 485 462.790 M 479.172 471.076 C 476.797 481.364, 478.186 490.322, 484.066 502.642 C 490.581 516.290, 507.386 531.800, 531.993 546.874 C 539.738 551.618, 565.489 564.383, 571.628 566.521 C 579.733 569.344, 583.225 566.867, 576.011 563.411 C 573.818 562.360, 572.018 561.163, 572.011 560.750 C 572.005 560.337, 571.530 560, 570.955 560 C 569.605 560, 557.461 551.817, 543.411 541.440 C 514.610 520.168, 494.758 500.273, 487.593 485.500 C 483.362 476.776, 482 472.849, 482 469.378 C 482 464.383, 480.510 465.278, 479.172 471.076 M 652 579.797 C 648.866 580.847, 648.136 583.993, 650.482 586.340 C 652.281 588.138, 655.667 587.439, 656.209 585.158 C 657.144 581.228, 655.183 578.731, 652 579.797 M 560.200 582.200 C 557.404 584.996, 560.121 589.731, 563.844 588.549 C 566.144 587.819, 567.107 584.942, 565.820 582.642 C 564.742 580.716, 561.907 580.493, 560.200 582.200 M 664.390 595.427 C 663.168 598.611, 664.443 601.493, 667.215 601.813 C 669.421 602.067, 670.052 601.643, 670.577 599.550 C 671.332 596.541, 669.624 594, 666.846 594 C 665.796 594, 664.691 594.642, 664.390 595.427 M 546.410 597.375 C 545.211 600.498, 546.424 602.500, 549.514 602.500 C 552.165 602.500, 552.500 602.164, 552.500 599.500 C 552.500 596.969, 552.069 596.450, 549.744 596.183 C 547.986 595.981, 546.779 596.412, 546.410 597.375 M 597.713 606.621 C 596.315 608.018, 597.031 611.946, 598.862 612.926 C 601.493 614.334, 604.290 612.098, 603.845 608.944 C 603.597 607.187, 602.786 606.417, 600.963 606.204 C 599.567 606.041, 598.104 606.229, 597.713 606.621 M 533.250 607.662 C 531.385 608.415, 531.689 613.943, 533.636 614.691 C 537.468 616.161, 540.699 610.716, 537.418 608.316 C 535.505 606.917, 535.210 606.871, 533.250 607.662 M 679.040 611.452 C 676.383 614.653, 680.285 619.570, 683.750 617.388 C 687.212 615.207, 685.979 610, 682 610 C 681.035 610, 679.703 610.653, 679.040 611.452 M 616.390 617.427 C 615.412 619.975, 616.455 623.471, 618.298 623.822 C 620.759 624.292, 623 622.225, 623 619.485 C 623 616.188, 617.519 614.483, 616.390 617.427 M 582.163 623.878 C 580.435 624.973, 581.031 629.002, 583.114 630.307 C 585.679 631.914, 588 630.409, 588 627.138 C 588 623.538, 585.182 621.964, 582.163 623.878 M 630.930 629.584 C 629.170 631.705, 630.870 634.400, 634.223 634.804 C 637.016 635.141, 638.440 632.962, 637.455 629.859 C 636.726 627.560, 632.749 627.393, 630.930 629.584 M 535.994 632.286 C 532.786 635.120, 533.080 639.808, 536.694 643.421 C 541.863 648.591, 550 645.022, 550 637.584 C 550 630.597, 541.532 627.393, 535.994 632.286 M 668.442 631.765 C 666.559 633.073, 664 637.396, 664 639.268 C 664 642.178, 668.517 646, 671.955 646 C 678.685 646, 681.671 637.247, 676.365 633.073 C 673.696 630.973, 670.372 630.425, 668.442 631.765 M 567 641 C 564.839 645.037, 569.613 648.987, 572.800 645.800 C 574.602 643.998, 574.246 641.202, 572.066 640.035 C 569.274 638.541, 568.207 638.744, 567 641 M 646.250 642.662 C 645.563 642.940, 645 644.164, 645 645.383 C 645 650.113, 650.494 651.866, 651.593 647.487 C 652.572 643.583, 649.915 641.183, 646.250 642.662 M 720.131 686.541 C 712.984 688.092, 703.179 692.404, 696.770 696.815 C 690.898 700.858, 681.077 710.564, 677.300 716.060 C 674.334 720.375, 666.786 734.761, 665.789 738 C 665.535 738.825, 665.064 734.325, 664.743 728 C 663.748 708.424, 657.445 693.931, 647.469 688.281 C 638.713 683.322, 631 687.021, 631 696.179 C 631 700.240, 635.920 704.889, 642.827 707.355 C 652.642 710.858, 658.872 721.652, 657.530 732.826 C 657.155 735.947, 654.882 748.625, 652.479 761 C 645.794 795.426, 643.792 818.363, 645.964 835.623 C 647.677 849.229, 650.301 857.234, 654.094 860.426 C 657.606 863.381, 659.893 863.624, 664.035 861.482 C 669.044 858.892, 669.042 856.915, 664.005 834.500 C 662.764 828.974, 661.741 819.710, 661.357 810.500 C 659.191 758.639, 678.648 713.173, 709.562 697.854 C 718.086 693.630, 718.636 693.500, 727.925 693.500 C 736.279 693.500, 738.248 693.850, 743.366 696.248 C 765.103 706.430, 779.850 742.727, 776.142 776.920 C 774.978 787.650, 772.021 800.379, 770.291 802.109 C 769.781 802.619, 764.669 804.169, 758.932 805.554 C 727.531 813.129, 710.511 819.218, 697.549 827.513 C 682.295 837.274, 676.792 844.190, 676.608 853.830 C 676.458 861.726, 679.446 866.380, 686.911 869.874 C 691.756 872.141, 693.766 872.481, 702 872.426 C 734.080 872.210, 769.784 846.126, 784.582 812.095 C 786.823 806.943, 788.606 804.240, 790.184 803.601 C 791.458 803.086, 796.271 800.942, 800.880 798.836 L 809.260 795.008 808.603 798.754 C 806.972 808.042, 806.830 812.203, 807.929 818.513 C 810.068 830.794, 816.685 840.187, 825.596 843.590 C 831.180 845.722, 843.893 845.158, 849 842.551 C 862.992 835.408, 873.861 820.097, 878.950 800.362 C 879.810 797.025, 880.547 796.118, 882.758 795.673 C 884.266 795.369, 886.676 794.828, 888.113 794.470 L 890.726 793.819 889.287 801.160 C 887.546 810.040, 888.107 822.326, 890.596 829.845 C 891.653 833.040, 894.139 837.162, 896.774 840.094 C 904.535 848.726, 915.838 850.104, 928.500 843.961 C 938.215 839.248, 950.590 827.585, 957.983 816.175 C 959.827 813.330, 961.488 811.155, 961.675 811.342 C 961.862 811.529, 962.416 814.876, 962.906 818.780 C 964.471 831.239, 970.709 841.186, 979.723 845.594 C 985.495 848.416, 995.112 848.106, 1002.058 844.873 C 1016.400 838.198, 1032.337 819.044, 1037.942 801.745 L 1039.159 797.989 1048.971 807.221 L 1058.783 816.454 1055.641 818.354 C 1046.697 823.763, 1041 830.632, 1041 836.010 C 1041 839.880, 1043.789 843.601, 1048.163 845.567 C 1054.376 848.359, 1068.425 848.139, 1076.157 845.128 C 1086.092 841.260, 1090 836.296, 1090 827.543 C 1090 823.823, 1089.369 822.514, 1085.500 818.211 C 1083.025 815.458, 1081 812.995, 1081 812.738 C 1081 812.481, 1084.713 810.122, 1089.250 807.497 C 1109.370 795.858, 1126.428 779.028, 1122.294 774.894 C 1120.814 773.414, 1118.774 774.648, 1115.060 779.269 C 1108.314 787.662, 1094.812 797.913, 1081.662 804.624 C 1073.671 808.702, 1074.313 808.910, 1063.905 798.865 C 1054.079 789.381, 1051.576 784.957, 1051.534 777 C 1051.495 769.547, 1053.713 765.265, 1059.924 760.800 C 1065.500 756.792, 1071.116 755.604, 1075.611 757.482 C 1079.479 759.098, 1081.915 761.553, 1081.968 763.888 C 1081.986 764.652, 1080.200 767.229, 1078 769.616 C 1071.761 776.384, 1073.180 783.370, 1081.048 784.628 C 1089.537 785.987, 1095 780.319, 1095 770.154 C 1095 756.407, 1084.250 748.703, 1068.228 750.968 C 1050.688 753.447, 1037.302 767.070, 1036.260 783.500 C 1034.773 806.963, 1012.334 836, 995.690 836 C 989.948 836, 984.672 832.615, 981.869 827.133 C 979.882 823.247, 979.446 820.692, 979.165 811.290 L 978.830 800.081 981.665 799.504 C 995.932 796.604, 1008.479 790.095, 1014.960 782.233 C 1022.493 773.094, 1022.597 760.031, 1015.182 754.500 C 1013.054 752.913, 1010.950 752.502, 1005 752.510 C 998.575 752.518, 996.732 752.944, 992.140 755.479 C 981.714 761.234, 971.377 774.327, 966.094 788.469 C 963.262 796.049, 959.225 803.401, 952.753 812.763 C 941.086 829.640, 924.768 838.356, 913.960 833.482 C 903.140 828.603, 900.981 806.096, 909.263 784.513 C 916.146 766.576, 926.581 756.215, 934.857 759.100 C 940.807 761.174, 941.858 767.922, 937.125 773.665 C 932.044 779.829, 933.173 786.125, 939.682 787.923 C 947.990 790.216, 953.530 783.663, 952.812 772.391 C 952.330 764.824, 948.742 758.871, 942.458 755.212 C 938.991 753.194, 937.437 752.951, 929.930 753.253 C 922.765 753.542, 920.592 754.049, 916.673 756.346 C 909.974 760.272, 903.110 767.469, 898.596 775.302 C 894.724 782.021, 890.160 786.439, 884.621 788.831 C 883.037 789.515, 881.645 789.946, 881.526 789.787 C 881.408 789.629, 880.816 785.346, 880.211 780.269 C 878.963 769.796, 876.788 764.105, 871.910 758.550 C 867.734 753.794, 863.609 752, 856.848 752 C 850.357 752, 843.873 754.989, 840.354 759.602 C 838.929 761.471, 837.089 763, 836.267 763 C 832.869 763, 825.246 768.368, 821 773.751 C 813.503 783.256, 807.854 788.318, 800.354 792.252 C 790.214 797.570, 789.814 797.454, 791.741 789.750 C 792.851 785.310, 793.315 778.431, 793.341 766 C 793.374 750.234, 793.121 747.549, 790.787 738.908 C 780.231 699.836, 752.745 679.464, 720.131 686.541 M 239.500 689.164 C 230.671 694.036, 219.413 712.719, 208.566 740.500 C 205.990 747.100, 203.407 753.625, 202.828 755 C 202.248 756.375, 196.892 772.232, 190.925 790.238 C 184.958 808.245, 179.420 824.220, 178.618 825.738 L 177.160 828.500 176.080 825.685 C 174.391 821.283, 174.816 797.576, 177.007 774 C 179.879 743.089, 180.589 722.657, 179.024 715.954 C 176.856 706.669, 171.046 701, 163.698 701 C 155.760 701, 149.571 709.644, 153.364 715.432 C 154.290 716.845, 157.862 719.278, 161.301 720.837 C 170.197 724.871, 171.429 727.117, 170.676 737.924 C 170.347 742.641, 168.974 752.800, 167.625 760.500 C 166.276 768.200, 164.022 781.087, 162.616 789.137 C 156.355 824.989, 157.232 851.633, 164.959 860.281 C 167.296 862.895, 168.538 863.455, 172.011 863.455 C 178.067 863.455, 180.125 860.381, 183.973 845.592 C 198.671 789.112, 212.364 748.503, 226.491 719.500 C 231.550 709.115, 237.053 701, 239.038 701 C 241.451 701, 242.076 707.004, 242.967 738.700 C 244.735 801.621, 250.271 823, 264.799 823 C 271.644 823, 275.160 817.556, 284.500 792.500 C 288.190 782.600, 291.809 773.150, 292.542 771.500 C 293.275 769.850, 295.071 765.575, 296.533 762 C 303.522 744.906, 312.722 728.328, 314.290 730 C 314.548 730.275, 314.378 738.825, 313.914 749 C 313.061 767.691, 314.155 803.367, 315.908 814 C 318.483 829.617, 322.575 839.664, 328.471 844.840 C 331.463 847.467, 332.896 848, 336.970 848 C 343.433 848, 346.083 846.887, 351.498 841.895 C 356.226 837.537, 363.788 825.993, 366.097 819.609 L 367.450 815.867 368.640 822.316 C 371.498 837.800, 378.802 846, 389.736 846 C 399.186 846, 406.252 840.547, 412.793 828.204 C 415.512 823.073, 420.723 808.323, 422.580 800.500 C 423.193 797.916, 423.468 798.541, 424.564 805 C 427.997 825.236, 434.318 834.047, 443.882 831.928 C 448.544 830.895, 453.897 824.860, 458.706 815.215 C 462.843 806.919, 463.959 807.191, 463.988 816.500 C 464.031 829.954, 467.848 844.758, 471.365 845.115 C 473.776 845.360, 476.556 844.759, 477.823 843.719 C 480.426 841.584, 483.269 834.462, 485.103 825.486 C 488.929 806.757, 497.561 781.431, 503.759 770.750 C 508.868 761.946, 510.114 762.865, 511.553 776.500 C 512.232 782.937, 514.158 790.558, 515.952 793.911 C 517.397 796.611, 522.106 799, 525.982 799 C 530.412 799, 534.810 796.906, 541.041 791.830 L 546.500 787.384 546.503 803.942 C 546.507 827.284, 549.411 836.621, 558.366 842.081 C 572.181 850.505, 588.398 831.028, 595.485 797.500 C 597.513 787.908, 597.440 786, 595.045 786 C 593.575 786, 592.921 786.929, 592.405 789.750 C 591.317 795.703, 585.104 812.969, 581.827 819.146 C 578.093 826.186, 573.474 831, 570.454 831 C 567.563 831, 564.360 827.031, 562.882 821.619 C 561.097 815.079, 561.444 792.977, 563.542 779.624 L 565.407 767.747 562.648 765.374 C 561.130 764.068, 558.768 763, 557.399 763 C 553.965 763, 550.270 767.012, 549.441 771.638 C 548.224 778.434, 538.025 789.435, 533.540 788.791 C 530.572 788.366, 528.365 782.775, 527.102 772.484 C 525.609 760.324, 524.400 756.459, 521.331 754.045 C 515.990 749.845, 508.208 752.225, 502.685 759.748 C 496.394 768.319, 488.462 785.960, 482.445 804.765 C 479.083 815.272, 478.410 812.913, 477.185 786.311 C 476.309 767.303, 475.889 765.691, 471.528 764.596 C 464.488 762.830, 461.506 768.652, 462.261 782.691 C 462.681 790.492, 462.493 791.483, 459.078 799.446 C 455.131 808.651, 449.959 816.695, 447.342 817.699 C 445.066 818.572, 442.330 814.947, 440.498 808.631 C 438.427 801.488, 436 782.166, 436 772.814 C 436 766.333, 435.659 764.659, 434 763 C 431.622 760.622, 430.966 760.570, 426.567 762.408 C 423.333 763.759, 423.087 763.700, 420.456 760.954 C 414.083 754.302, 403.042 752.929, 393.717 757.629 C 384.369 762.341, 375.660 774.081, 371.929 787 C 369.994 793.700, 362.385 813.312, 359.611 818.747 C 355.722 826.370, 351.207 831.934, 347.464 833.718 C 344.145 835.301, 343.856 835.285, 341.242 833.375 C 332.508 826.992, 329.806 808.301, 330.128 756.500 C 330.297 729.255, 330.092 723.955, 328.748 720.830 C 324.842 711.751, 315.113 713.642, 306.819 725.092 C 302.587 730.933, 295.024 746.576, 288.523 762.935 C 285.368 770.874, 282.398 778.074, 281.924 778.935 C 281.450 779.796, 279.673 783.875, 277.974 788 C 274.280 796.971, 270.297 804, 268.907 804 C 267.554 804, 265.158 798.082, 263.923 791.695 C 261.630 779.829, 260.947 770.950, 260.026 741 C 258.800 701.118, 257.459 693.474, 251.021 689.672 C 247.801 687.770, 242.455 687.534, 239.500 689.164 M 556.714 708.486 C 552.493 712.707, 551.343 717.493, 553.380 722.367 C 555.059 726.386, 557.555 728, 562.089 728 C 564.551 728, 566.215 727.048, 569.155 723.958 C 572.564 720.374, 573 719.349, 573 714.912 C 573 708.379, 569.982 705, 564.145 705 C 560.973 705, 559.517 705.683, 556.714 708.486 M 1001.404 757.974 C 996.351 760.017, 985.090 777.767, 982.196 788.250 C 981.266 791.622, 981.351 792, 983.043 792 C 986.937 792, 995.878 787.821, 999.491 784.311 C 1007.533 776.501, 1011.645 761.966, 1006.777 758.557 C 1004.279 756.807, 1004.289 756.808, 1001.404 757.974 M 856.750 761.080 C 851.937 763.883, 850.516 774.171, 853.998 780.997 C 856.400 785.705, 863.057 789.927, 868.612 790.264 L 872.500 790.500 872.414 784.500 C 872.228 771.526, 866.951 759.967, 861.244 760.030 C 859.735 760.047, 857.712 760.519, 856.750 761.080 M 399.898 764.286 C 391.650 769.835, 385.111 787.744, 384.269 807.090 C 383.667 820.933, 385.344 828.552, 389.759 832.025 C 398.831 839.161, 409.058 825.785, 416.155 797.500 C 419.809 782.938, 418.539 770.396, 412.792 764.278 C 409.943 761.246, 404.411 761.250, 399.898 764.286 M 833.569 775.086 C 825.337 784.830, 820.745 806.183, 824.059 819.307 C 825.745 825.985, 831.207 832.709, 835.992 833.998 C 847.063 836.979, 859.187 829.098, 865.990 814.500 C 868.661 808.766, 870.983 801.758, 870.994 799.390 C 870.997 798.779, 868.527 798.025, 865.497 797.712 C 851.478 796.265, 839.660 786.649, 837.077 774.586 L 836.453 771.673 833.569 775.086 M 748.843 815.031 C 730.598 820.330, 714.387 826.358, 705.631 831.100 C 699.090 834.643, 689.549 843.037, 687.450 847.096 C 685.706 850.469, 685.574 855.970, 687.154 859.438 C 689.807 865.260, 701.457 867.585, 712.822 864.560 C 730.565 859.837, 752.814 839.160, 764.003 816.995 C 765.651 813.729, 767 810.819, 767 810.529 C 767 809.759, 766.997 809.759, 748.843 815.031 M 1061.973 822.649 C 1060.613 823.556, 1057.813 825.898, 1055.750 827.852 C 1051.621 831.765, 1050.700 836.557, 1053.532 839.389 C 1057.268 843.125, 1068.046 842.045, 1072.615 837.476 C 1076.228 833.863, 1075.668 830.826, 1070.421 825.579 C 1067.903 823.061, 1065.528 821, 1065.144 821 C 1064.759 821, 1063.332 821.742, 1061.973 822.649 M 476 903 C 476 903.550, 476.645 904, 477.433 904 C 479.348 904, 479.807 906.103, 479.812 914.907 C 479.817 923.245, 479.396 925, 477.393 925 C 476.627 925, 476 925.450, 476 926 C 476 926.589, 479.517 927, 484.550 927 C 497.497 927, 502 923.821, 502 914.682 C 502 908.504, 499.287 904.452, 494.207 903.041 C 489.419 901.711, 476 901.681, 476 903 M 515.763 903.565 C 512.092 905.557, 510 909.908, 510 915.550 C 510 919.505, 510.508 920.708, 513.400 923.600 C 516.394 926.594, 517.420 927, 521.996 927 C 525.026 927, 528.354 926.313, 529.981 925.352 C 532.907 923.624, 536 918.297, 536 914.986 C 536 911.082, 532.754 904.924, 529.926 903.462 C 526.320 901.597, 519.295 901.649, 515.763 903.565 M 546.517 905.283 C 540.514 911.286, 540.846 919.168, 547.332 924.626 C 550.038 926.903, 551.094 927.161, 556.188 926.793 C 560.489 926.482, 562.609 925.776, 564.455 924.042 C 568.215 920.510, 566.600 919.897, 561.168 922.794 C 556.880 925.080, 555.983 925.235, 553.353 924.146 C 543.696 920.146, 545.425 903.600, 555.499 903.600 C 559.176 903.600, 561.339 905.210, 563.965 909.902 C 565.535 912.707, 566.356 910.132, 565.162 906.147 L 564.004 902.281 556.940 902.103 C 550.154 901.932, 549.743 902.057, 546.517 905.283 M 574 902.858 C 574 903.368, 574.675 904.045, 575.500 904.362 C 576.689 904.818, 577 906.922, 577 914.500 C 577 922.078, 576.689 924.182, 575.500 924.638 C 571.403 926.210, 574.951 927.042, 584.651 926.784 L 595.303 926.500 596.655 922.587 C 597.399 920.435, 597.802 918.469, 597.550 918.217 C 597.299 917.965, 595.556 919.388, 593.678 921.380 C 590.616 924.626, 589.734 925, 585.132 925 L 580 925 580 920 C 580 915.077, 580.048 915, 583.094 915 C 585.346 915, 586.329 915.544, 586.710 917 C 587.688 920.738, 589 919.019, 589 914 C 589 908.981, 587.688 907.262, 586.710 911 C 586.329 912.456, 585.346 913, 583.094 913 C 580.094 913, 580 912.864, 580 908.500 L 580 904 585.427 904 C 590.109 904, 591.142 904.365, 592.941 906.653 C 595.428 909.814, 596.755 909.051, 595.414 905.230 C 594.465 902.525, 594.364 902.497, 584.228 902.215 C 578.400 902.053, 574 902.329, 574 902.858 M 606.691 903.789 C 604.602 906.097, 604.501 910.358, 606.487 912.344 C 607.304 913.161, 610.342 914.603, 613.237 915.548 C 616.131 916.492, 619.063 917.710, 619.750 918.255 C 622.759 920.639, 619.969 925.894, 615.654 925.968 C 612.884 926.016, 608.313 922.983, 607.081 920.278 C 606.482 918.963, 605.543 918.164, 604.996 918.503 C 603.727 919.287, 603.733 921.168, 605.017 924.544 C 605.778 926.546, 606.351 926.954, 607.300 926.166 C 608.101 925.501, 609.106 925.456, 610.034 926.042 C 610.840 926.552, 613.559 926.976, 616.076 926.985 C 619.578 926.996, 621.161 926.457, 622.826 924.686 C 627.333 919.887, 624.641 915.159, 615.926 912.571 C 613.075 911.724, 610.126 910.519, 609.371 909.893 C 607.355 908.220, 607.702 905.230, 610.059 903.969 C 613.220 902.277, 617.217 903.739, 620.230 907.690 C 623.253 911.655, 624.579 910.669, 623.176 905.500 C 622.382 902.570, 622.199 902.493, 615.372 902.210 C 609.580 901.970, 608.092 902.240, 606.691 903.789 M 647.500 903 C 647.160 903.550, 647.584 904, 648.441 904 C 649.754 904, 650 905.657, 650 914.500 C 650 923.167, 649.738 925, 648.500 925 C 647.675 925, 647 925.450, 647 926 C 647 926.550, 649.250 927, 652 927 C 654.750 927, 657 926.550, 657 926 C 657 925.450, 656.325 925, 655.500 925 C 654.364 925, 654 923.770, 654 919.934 C 654 914.997, 654.070 914.875, 656.750 915.184 C 658.450 915.379, 659.877 916.359, 660.487 917.750 C 662.116 921.464, 663 920.321, 663 914.500 C 663 911.475, 662.550 909, 662 909 C 661.450 909, 661 909.659, 661 910.465 C 661 912.071, 658.034 914, 655.566 914 C 654.354 914, 654 912.871, 654 909 L 654 904 659.015 904 C 663.545 904, 664.211 904.298, 665.904 907.083 C 668.145 910.767, 669.420 909.503, 667.890 905.115 L 666.804 902 657.461 902 C 652.311 902, 647.841 902.449, 647.500 903 M 673.500 903 C 673.840 903.550, 674.766 904, 675.559 904 C 677.721 904, 677.664 923.808, 675.500 924.638 C 672.377 925.837, 674.194 927, 679.189 927 L 684.377 927 682.213 924.984 C 680.257 923.162, 680.076 922.103, 680.326 913.989 C 680.558 906.459, 680.917 904.773, 682.551 903.537 C 684.341 902.184, 684.026 902.061, 678.691 902.032 C 675.066 902.012, 673.114 902.376, 673.500 903 M 691.750 903.674 C 693.752 905.071, 693.998 906.085, 693.986 912.872 C 693.970 921.821, 693.288 925, 691.383 925 C 690.623 925, 690 925.450, 690 926 C 690 926.550, 692.025 927, 694.500 927 C 696.975 927, 699 926.550, 699 926 C 699 925.450, 698.325 925, 697.500 925 C 696.268 925, 696.002 923.256, 696.013 915.250 L 696.026 905.500 702.490 915.500 C 706.044 921, 708.963 925.837, 708.976 926.250 C 708.989 926.663, 709.675 927, 710.500 927 C 711.746 927, 712 925.056, 712 915.500 C 712 905.944, 712.254 904, 713.500 904 C 714.325 904, 715 903.550, 715 903 C 715 902.450, 713.200 902, 711 902 C 706.621 902, 706.250 902.392, 708.500 904.643 C 710.072 906.215, 710.716 918, 709.230 918 C 708.806 918, 706.219 914.407, 703.480 910.015 L 698.500 902.030 694 902.067 C 689.619 902.104, 689.559 902.146, 691.750 903.674 M 727.314 903.950 C 723.104 906.517, 722 908.820, 722 915.034 C 722 919.576, 722.411 920.611, 725.400 923.600 C 728.471 926.671, 729.351 927, 734.500 927 C 742.794 927, 747 922.794, 747 914.500 C 747 909.351, 746.671 908.471, 743.600 905.400 C 740.666 902.466, 739.535 902.001, 735.350 902.004 C 732.313 902.006, 729.309 902.734, 727.314 903.950 M 758.240 903.544 C 755.674 905.342, 755.127 911.031, 757.344 912.871 C 758.083 913.484, 761.299 914.781, 764.491 915.753 C 772.698 918.251, 774.518 922.440, 768.573 925.149 C 765.205 926.683, 760.936 924.854, 758.581 920.867 C 756.372 917.128, 754.846 918.279, 755.628 923.095 C 756.141 926.257, 756.545 926.652, 759.352 926.734 C 761.083 926.785, 764.495 926.927, 766.934 927.050 C 770.659 927.237, 771.739 926.842, 773.684 924.581 C 778.284 919.233, 776.277 915.486, 767.237 912.544 C 762.143 910.885, 759 908.770, 759 907 C 759 905.399, 762.134 903, 764.226 903 C 765.372 903, 768.017 904.795, 770.103 906.988 C 774.204 911.299, 775.450 911.057, 774.062 906.218 C 773.579 904.531, 773.384 902.949, 773.631 902.703 C 773.877 902.456, 771.019 902.192, 767.280 902.115 C 762.535 902.017, 759.803 902.449, 758.240 903.544 M 518.750 904.080 C 516.020 905.670, 514 910.472, 514 915.373 C 514 919.035, 514.558 920.404, 517.077 922.923 C 518.769 924.615, 521.184 926, 522.442 926 C 525.977 926, 529.835 922.325, 531.055 917.797 C 533.571 908.452, 525.909 899.910, 518.750 904.080 M 731.357 903.992 C 727.769 905.440, 726 909.008, 726 914.799 C 726 919.431, 726.410 920.564, 729.040 923.194 C 731.584 925.738, 732.604 926.133, 735.290 925.615 C 740.063 924.695, 742.989 920.532, 742.995 914.654 C 743.004 905.697, 738.150 901.250, 731.357 903.992 M 483 914.500 L 483 925 488.045 925 C 495.214 925, 498 922.113, 498 914.682 C 498 910.171, 497.562 908.835, 495.364 906.636 C 493.238 904.511, 491.785 904, 487.864 904 L 483 904 483 914.500" stroke="none" fill="black" fill-rule="evenodd"/>
</svg>